<?xml version="1.0" encoding="UTF-8" standalone="no" ?>
<!DOCTYPE svg PUBLIC "-//W3C//DTD SVG 1.1//EN" "http://www.w3.org/Graphics/SVG/1.1/DTD/svg11.dtd">
<svg xmlns="http://www.w3.org/2000/svg" xmlns:xlink="http://www.w3.org/1999/xlink" version="1.1" width="1280" height="1024" viewBox="0 0 1280 1024" xml:space="preserve">
<desc>Created with Fabric.js 4.4.0</desc>
<defs>
</defs>
<g transform="matrix(1 0 0 1 640 512)" id="background-logo"  >
<rect style="stroke: none; stroke-width: 0; stroke-dasharray: none; stroke-linecap: butt; stroke-dashoffset: 0; stroke-linejoin: miter; stroke-miterlimit: 4; fill: rgb(255,255,255); fill-opacity: 0; fill-rule: nonzero; opacity: 1;"  paint-order="stroke"  x="-640" y="-512" rx="0" ry="0" width="1280" height="1024" />
</g>
<g transform="matrix(0.6472521213993758 0 0 0.6472521213993758 225.94935840252504 398.4083793186003)" id="logo-logo"  >
<g style=""  paint-order="stroke"   >
		<g transform="matrix(0.3623352005348833 0 0 0.3623352005348833 -58.62296731121296 -116.16070889907866)"  >
<polygon style="stroke: none; stroke-width: 1; stroke-dasharray: none; stroke-linecap: butt; stroke-dashoffset: 0; stroke-linejoin: miter; stroke-miterlimit: 4; fill: rgb(42,156,245); fill-rule: nonzero; opacity: 1;"  paint-order="stroke"  points="45.9718628,-36.89909365 -27.8263245,-36.89909365 -45.9718628,36.89909365 27.826293899999996,36.89909365 " />
</g>
		<g transform="matrix(0.3623352005348833 0 0 0.3623352005348833 -102.87228014071732 -116.16070889907866)"  >
<polygon style="stroke: none; stroke-width: 1; stroke-dasharray: none; stroke-linecap: butt; stroke-dashoffset: 0; stroke-linejoin: miter; stroke-miterlimit: 4; fill: rgb(42,156,245); fill-rule: nonzero; opacity: 1;"  paint-order="stroke"  points="45.971862750000014,-36.89909365 -27.82630925000001,-36.89909365 -45.971862750000014,36.89909365 27.826324449999987,36.89909365 " />
</g>
		<g transform="matrix(0.3623352005348833 0 0 0.3623352005348833 -57.219404952847526 2.4767183128994645)"  >
<polygon style="stroke: none; stroke-width: 1; stroke-dasharray: none; stroke-linecap: butt; stroke-dashoffset: 0; stroke-linejoin: miter; stroke-miterlimit: 4; fill: rgb(42,156,245); fill-rule: nonzero; opacity: 1;"  paint-order="stroke"  points="45.9718628,-36.89907840000001 -27.82629400000002,-36.89907840000001 -45.9718628,36.89907840000001 27.826324400000033,36.89907840000001 " />
</g>
		<g transform="matrix(0.3623352005348833 0 0 0.3623352005348833 0 0)"  >
<path style="stroke: none; stroke-width: 1; stroke-dasharray: none; stroke-linecap: butt; stroke-dashoffset: 0; stroke-linejoin: miter; stroke-miterlimit: 4; fill: rgb(42,156,245); fill-rule: nonzero; opacity: 1;"  paint-order="stroke"  transform=" translate(-500.0000006039072, -499.9999848)" d="M 793.5178833 142.5118103 L 432.5041504 142.5118103 L 414.3586121 216.3099976 L 775.3723145 216.3099976 C 782.5675049 216.3099976 786.9829102 222.1650696 785.2137452000001 229.3602448 L 759.2971803 334.7633973 C 757.5280153 341.95855720000003 750.2332765 347.8136598 743.0380861 347.8136598 L 623.3828735 347.8136598 L 627.2684326 332.01116959999996 C 639.0433349 284.12258929999996 609.6629028 245.16273519999996 561.774353 245.16273519999996 L 163.0191345 245.16273519999996 L 140.9880523 334.7633974 C 129.2131805 382.6519777 158.5935668 421.6118166 206.4811553 421.6118166 L 531.4391631000001 421.6118166 L 445.6194610000001 770.6417238 C 443.8502960000001 777.8368532000001 436.5560455000001 783.6900026000001 429.36088560000013 783.6900026000001 L 323.9577026 783.6900026000001 C 316.7615661 783.6900026000001 312.3466491 777.8368532000001 314.1157837 770.6417238 L 358.02584840000003 592.0588991 L 284.22769170000004 592.0588991 L 240.31761170000004 770.6417237999999 C 228.54321290000004 818.5283205 257.92358400000006 857.4881592999999 305.81216430000006 857.4881592999999 L 411.215332 857.4881592999999 C 459.1038818 857.4881592999999 507.643219 818.5283203999999 519.4176024999999 770.6417237999999 L 605.2373656999999 421.6118165999999 L 724.8925780999999 421.6118165999999 C 772.7811278999999 421.6118165999999 821.3204344999999 382.65197769999986 833.0953368999999 334.7633973999999 L 859.0119628999998 229.3602448999999 C 870.7868042 181.4716797 841.4064331 142.5118103 793.5178833 142.5118103 z M 224.626709 347.8136597 C 217.4315491 347.8136597 213.0170899 341.95855720000003 214.78623960000002 334.76339720000004 L 218.6717682 318.960907 L 543.6287994 318.960907 C 550.8239898 318.960907 555.2393951 324.815979 553.4702911 332.0111695 L 549.584732 347.8136597 L 224.626709 347.8136597 z" stroke-linecap="round" />
</g>
		<g transform="matrix(0.3623352005348833 0 0 0.3623352005348833 63.09622757961472 -41.772627670275824)"  >
<linearGradient id="SVGID_1_3_3_24597" gradientUnits="userSpaceOnUse" gradientTransform="matrix(1 0 -0.2458807 1 -617.5851555 -384.71273805)"  x1="742.7172852" y1="384.712738" x2="644.8934937" y2="384.712738">
<stop offset="17.04898%" style="stop-color:rgb(42,156,245);stop-opacity: 1"/>
<stop offset="99.63567%" style="stop-color:rgb(37,81,186);stop-opacity: 1"/>
</linearGradient>
<polygon style="stroke: none; stroke-width: 1; stroke-dasharray: none; stroke-linecap: butt; stroke-dashoffset: 0; stroke-linejoin: miter; stroke-miterlimit: 4; fill: url(#SVGID_1_3_3_24597); fill-rule: nonzero; opacity: 1;"  paint-order="stroke"  points="-50.75485230000004,-36.89907834999997 -68.90036009999994,36.899078350000025 50.75485230000004,36.899078350000025 68.90036010000006,-36.89907834999997 " />
</g>
		<g transform="matrix(0.3623352005348833 0 0 0.3623352005348833 -6.998743232994343 -41.772627670275824)"  >
<linearGradient id="SVGID_2_4_4_24598" gradientUnits="userSpaceOnUse" gradientTransform="matrix(-1 0 -0.2458807 1 682.5826263499999 -384.71273805)"  x1="618.527832" y1="384.712738" x2="520.7041016" y2="384.712738">
<stop offset="17.04898%" style="stop-color:rgb(42,156,245);stop-opacity: 1"/>
<stop offset="99.63567%" style="stop-color:rgb(37,81,186);stop-opacity: 1"/>
</linearGradient>
<polygon style="stroke: none; stroke-width: 1; stroke-dasharray: none; stroke-linecap: butt; stroke-dashoffset: 0; stroke-linejoin: miter; stroke-miterlimit: 4; fill: url(#SVGID_2_4_4_24598); fill-rule: nonzero; opacity: 1;"  paint-order="stroke"  points="68.90037534999999,-36.89907834999997 50.75480644999993,36.899078350000025 -68.90037535000005,36.899078350000025 -50.75480655000001,-36.89907834999997 " />
</g>
</g>
</g>
<g transform="matrix(1.9211538461538462 0 0 1.9211538461538462 512.5877790537016 426.27000168025427)" id="text-logo-path-group"  >
<g style=""  paint-order="stroke"   >
		<g transform="matrix(1 0 0 1 0 0)" id="text-logo-path-0"  >
<path style="stroke: none; stroke-width: 0; stroke-dasharray: none; stroke-linecap: butt; stroke-dashoffset: 0; stroke-linejoin: miter; stroke-miterlimit: 4; fill: rgb(42,156,245); fill-rule: nonzero; opacity: 1;"  paint-order="stroke"  transform=" translate(-133.79999999999998, 11.075000000000001)" d="M 10.02 -7.13 L 14.01 0 L 20.17 0 L 15.53 -8.37 C 17.67 -9.76 18.9 -12.13 18.9 -14.66 C 18.9 -18.84 15.56 -22.18 11.41 -22.18 L 2.01 -22.18 L 2.01 0 L 7.43 0 L 7.43 -7.13 Z M 7.43 -12.26 L 7.43 -17.06 L 11.41 -17.06 C 12.78 -17.06 13.81 -16.02 13.81 -14.66 C 13.81 -13.36 12.71 -12.26 11.41 -12.26 Z M 42.41 -7.46 L 42.41 -22.18 L 37.03 -22.18 L 37.03 -7.46 C 37.03 -5.58 35.21 -4.93 33.59 -4.93 C 32.1 -4.93 30.19 -5.71 30.19 -7.46 L 30.19 -22.18 L 24.81 -22.18 L 24.81 -7.46 C 24.81 -2.53 28.99 0.45 33.59 0.45 C 38.23 0.45 42.41 -2.63 42.41 -7.46 Z M 47.57 -10.99 C 47.57 -4.67 52.76 0.45 59.01 0.45 C 63.2 0.45 67.15 -1.95 69.1 -5.64 L 64.33 -8.24 C 63.36 -6.26 61.22 -4.96 59.01 -4.96 C 55.71 -4.96 52.95 -7.72 52.95 -10.99 C 52.95 -14.3 55.74 -17.02 59.01 -17.02 C 61.22 -17.02 63.23 -15.86 64.3 -13.91 L 69.03 -16.44 C 67.05 -20.14 63.2 -22.41 59.01 -22.41 C 52.72 -22.41 47.57 -17.35 47.57 -10.99 Z M 87.9 0 L 94.62 0 L 85.44 -12.09 L 93.55 -22.18 L 86.74 -22.18 L 79.96 -13.85 L 79.96 -22.18 L 74.55 -22.18 L 74.55 0 L 79.96 0 L 79.96 -5.22 L 81.97 -7.75 Z M 109.34 -22.18 L 99.87 -22.18 L 99.87 0 L 109.34 0 C 115.66 0 120.72 -4.67 120.72 -10.99 C 120.72 -17.28 115.66 -22.18 109.34 -22.18 Z M 105.28 -5.09 L 105.28 -17.06 L 109.34 -17.06 C 112.68 -17.06 115.34 -14.36 115.34 -11.06 C 115.34 -7.72 112.61 -5.09 109.34 -5.09 Z M 127.01 -22.18 L 127.01 0 L 132.42 0 L 132.42 -22.18 Z M 146.69 0.45 C 150.81 0.45 154.8 -1.85 154.8 -6.29 C 154.8 -10.67 151.36 -12.48 147.63 -13.62 C 146.63 -13.94 145.88 -14.23 145.39 -14.46 C 144.71 -14.79 144.23 -15.14 144.23 -15.95 C 144.23 -16.89 145.43 -17.25 146.17 -17.25 C 147.92 -17.25 148.8 -16.47 149.54 -14.95 L 154.15 -17.64 C 152.56 -20.91 149.8 -22.6 146.17 -22.6 C 142.22 -22.6 138.84 -20.04 138.84 -15.95 C 138.84 -11.77 141.83 -10.12 145.43 -9.05 C 146.56 -8.72 147.37 -8.43 147.92 -8.2 C 148.67 -7.91 149.41 -7.52 149.41 -6.61 C 149.41 -5.41 147.79 -4.83 146.82 -4.83 C 144.71 -4.83 143.25 -5.64 142.44 -7.65 L 137.9 -4.99 C 139.36 -1.26 142.8 0.45 146.69 0.45 Z M 168.61 -22.18 L 160.15 -22.18 L 160.15 0 L 165.53 0 L 165.53 -7.13 L 168.61 -7.13 C 172.79 -7.13 176.17 -10.51 176.17 -14.66 C 176.17 -18.81 172.79 -22.18 168.61 -22.18 Z M 165.53 -12.26 L 165.53 -17.06 L 168.61 -17.06 C 170 -17.06 171.01 -16.05 171.01 -14.66 C 171.01 -13.29 169.97 -12.26 168.61 -12.26 Z M 193.58 0 L 199.35 0 L 191.21 -22.18 L 185.44 -22.18 L 177.33 0 L 183.1 0 L 184.53 -3.86 L 192.15 -3.86 Z M 186.38 -8.98 L 188.36 -14.33 L 190.27 -8.98 Z M 215.92 -17.06 L 215.92 -22.18 L 199.35 -22.18 L 199.35 -17.06 L 204.96 -17.06 L 204.96 0 L 210.34 0 L 210.34 -17.06 Z M 219.26 -10.99 C 219.26 -4.67 224.45 0.45 230.7 0.45 C 234.89 0.45 238.84 -1.95 240.79 -5.64 L 236.02 -8.24 C 235.05 -6.26 232.91 -4.96 230.7 -4.96 C 227.4 -4.96 224.64 -7.72 224.64 -10.99 C 224.64 -14.3 227.43 -17.02 230.7 -17.02 C 232.91 -17.02 234.92 -15.86 235.99 -13.91 L 240.72 -16.44 C 238.75 -20.14 234.89 -22.41 230.7 -22.41 C 224.41 -22.41 219.26 -17.35 219.26 -10.99 Z M 260.21 -22.18 L 260.21 -13.91 L 251.33 -13.91 L 251.33 -22.18 L 245.91 -22.18 L 245.91 0 L 251.33 0 L 251.33 -8.79 L 260.21 -8.79 L 260.21 0 L 265.59 0 L 265.59 -22.18 Z" stroke-linecap="round" />
</g>
</g>
</g>
</svg>