<svg width="41" height="42" viewBox="0 0 41 42" fill="none" xmlns="http://www.w3.org/2000/svg">
<path d="M39.12 18.48L36.4 15.32C35.88 14.72 35.46 13.6 35.46 12.8V9.39999C35.46 7.27999 33.72 5.53999 31.6 5.53999H28.2C27.42 5.53999 26.28 5.12 25.68 4.59999L22.52 1.88C21.14 0.699995 18.88 0.699995 17.48 1.88L14.34 4.61999C13.74 5.12 12.6 5.53999 11.82 5.53999H8.36001C6.24001 5.53999 4.50001 7.27999 4.50001 9.39999V12.82C4.50001 13.6 4.08001 14.72 3.58001 15.32L0.88001 18.5C-0.27999 19.88 -0.27999 22.12 0.88001 23.5L3.58001 26.68C4.08001 27.28 4.50001 28.4 4.50001 29.18V32.6C4.50001 34.72 6.24001 36.46 8.36001 36.46H11.82C12.6 36.46 13.74 36.88 14.34 37.4L17.5 40.12C18.88 41.3 21.14 41.3 22.54 40.12L25.7 37.4C26.3 36.88 27.42 36.46 28.22 36.46H31.62C33.74 36.46 35.48 34.72 35.48 32.6V29.2C35.48 28.42 35.9 27.28 36.42 26.68L39.14 23.52C40.3 22.14 40.3 19.86 39.12 18.48ZM28.32 17.22L18.66 26.88C18.38 27.16 18 27.32 17.6 27.32C17.2 27.32 16.82 27.16 16.54 26.88L11.7 22.04C11.12 21.46 11.12 20.5 11.7 19.92C12.28 19.34 13.24 19.34 13.82 19.92L17.6 23.7L26.2 15.1C26.78 14.52 27.74 14.52 28.32 15.1C28.9 15.68 28.9 16.64 28.32 17.22Z" fill="#4326C4"/>
</svg>
